<svg width="67" height="55" fill="none" xmlns="http://www.w3.org/2000/svg"><path d="M61.9 3.6V1.2h2l-2 2.4Zm-49.4 9.3c.1.1 2.4-2.4 6.2-4.8C22 5.8 27.3 3 33 3c5.8 0 11.1 2.8 14.5 5 3.7 2.4 6 4.8 6.2 5l-2.6 3c-4.5.5-7.7 3.8-12 3.1-2.3-.4-2.4-1.6-3-2.9-.5-1-1.3-.8-2.3-1.2-1-.4-1.5-1-3.4-.7-1.6.4-1.8 3-4 2.8-1 0-1.1-1.6-2.7-3.6-4.1-4.8-8-4.1-10.6.3L33 37.1 12.5 13ZM4.1 1.2V3L2.5 1h1.6Zm54 0h3.3v3L58.2 8V1.2Zm-4 11.3V1.2h3.5v7.4l-3.5 4Zm-.5-10.3V12a26 26 0 0 0-3.7-3l3.7-6.8Zm-4.2-.3v6.8l-1.5-1c-.7-.4-1.4-1-2.2-1.3l3.7-4.5ZM45 1.7V6l-3-1.5 3-2.8Zm.6-.5h3.7l-3.7 4.6V1.2Zm4.3 0h3.7l-3.7 7v-7Zm-8.8 0h4l-3.6 3h-.3v-3Zm-.5.4V4l-3-1 3-1.4Zm-4.2 0v1.3l-2.2-.3 2.2-1Zm-6.8 0 2.2 1c-.8 0-1.5 0-2.2.3V1.6Zm-4.1 0 3 1.5a16 16 0 0 0-3 .9V1.6ZM29 2.8l-3.3-1.6H29v1.6Zm3.5-.4L29.8 1h2.8v1.3Zm.7-1.2h2.9l-2.9 1.3V1.2Zm3.7 0h3.2L37 2.8V1.2Zm-12.4 3-3.5-3H25v3h-.4ZM21 1.8l3 2.7-3 1.5V1.7Zm-4.4.2 3.7 4.5c-1.3.7-2.5 1.5-3.7 2.4v-7Zm-4.2.3 3.6 7c-1.3 1-2.5 2-3.6 3.1V2.2Zm3.7 6L12.5 1h3.6v7Zm4.4-2.5L16.7 1h3.8v4.6ZM7.8 7.5 4.6 3.7V1.2h3.2v6.3Zm.6-6.3H12v11.1L8.4 8.2v-7ZM33.3 0H.1v14.5L33 54.2l.2-.3 33-39V0H33.4Z" fill="#491213"/></svg>