<svg width="55" height="55" fill="none" xmlns="http://www.w3.org/2000/svg"><rect x=".5" y=".5" width="54" height="54" rx="3.5" fill="#82B3D3" stroke="#82B3D3"/><path d="M18.17 31.8h2.78v-7.9l.3-1.36-.96 1.18-1.78 1.22-1.1-1.5 4.56-3.68h1.46V31.8h2.72V34h-7.98v-2.2Zm10.13-4.82c0-2.45.42-4.27 1.26-5.46a4.15 4.15 0 0 1 3.62-1.8c1.68 0 2.91.6 3.7 1.78.79 1.17 1.18 3 1.18 5.48 0 2.47-.43 4.3-1.28 5.5a4.15 4.15 0 0 1-3.62 1.8c-1.67 0-2.9-.63-3.68-1.88-.79-1.27-1.18-3.07-1.18-5.42Zm2.6 0c0 1.63.17 2.89.52 3.78.36.88.95 1.32 1.76 1.32.79 0 1.36-.4 1.72-1.22.37-.81.56-2.1.56-3.88 0-1.61-.17-2.86-.52-3.74-.35-.88-.94-1.32-1.78-1.32-.8 0-1.38.41-1.74 1.24-.35.83-.52 2.1-.52 3.82Z" fill="#fff"/></svg>