<svg width="55" height="55" fill="none" xmlns="http://www.w3.org/2000/svg"><rect x=".5" y=".5" width="54" height="54" rx="3.5" fill="#82B3D3" stroke="#82B3D3"/><path d="M30.83 23.42c0 .68-.13 1.37-.38 2.06-.24.7-.56 1.37-.94 2.04-.38.67-.8 1.31-1.26 1.94-.46.61-.9 1.18-1.34 1.7l-1.06.82v.1l1.44-.28h3.84V34H22.7v-1.34l1.08-1.16a44.62 44.62 0 0 0 2.4-2.98c.38-.53.73-1.07 1.04-1.6.3-.55.54-1.07.72-1.58.18-.5.28-.99.28-1.44 0-.55-.16-1-.48-1.34-.31-.36-.8-.54-1.48-.54-.43 0-.87.1-1.32.28-.44.17-.82.4-1.12.68l-1.04-1.84a6.4 6.4 0 0 1 4.1-1.42c.57 0 1.1.08 1.58.24a3.21 3.21 0 0 1 2.06 1.86c.2.45.3.99.3 1.6Z" fill="#fff"/></svg>