<svg width="55" height="55" fill="none" xmlns="http://www.w3.org/2000/svg"><rect x=".5" y=".5" width="54" height="54" rx="3.5" fill="#82B3D3" stroke="#82B3D3"/><path d="M26.15 32.08c.82 0 1.45-.22 1.88-.66.44-.44.66-.97.66-1.6 0-.76-.23-1.32-.68-1.68-.46-.36-1.17-.54-2.14-.54h-1.44v-1.38l2.42-3.3 1.14-.9-1.58.18h-3.36V20h7.64v1.42l-2.82 3.78-.88.54v.1l.84-.12c.46.04.9.15 1.32.32A3.43 3.43 0 0 1 31 28c.18.48.28 1.03.28 1.66a4.8 4.8 0 0 1-.4 2.04 3.88 3.88 0 0 1-1.08 1.44c-.46.39-.99.67-1.6.86-.62.19-1.28.28-1.98.28-.59 0-1.2-.05-1.82-.16a5.27 5.27 0 0 1-1.52-.46l.7-2.16a5.76 5.76 0 0 0 2.56.58Z" fill="#fff"/></svg>