<svg width="55" height="55" fill="none" xmlns="http://www.w3.org/2000/svg"><rect x=".5" y=".5" width="54" height="54" rx="3.5" fill="#82B3D3" stroke="#82B3D3"/><path d="M20.2 32.68c0-.47.15-.83.44-1.1.3-.28.68-.42 1.16-.42.51 0 .91.14 1.2.42.3.27.44.63.44 1.1 0 .47-.14.84-.44 1.12-.29.28-.69.42-1.2.42-.48 0-.86-.14-1.16-.42-.29-.28-.44-.65-.44-1.12Zm5.18 0c0-.47.15-.83.44-1.1.3-.28.68-.42 1.16-.42.5 0 .9.14 1.2.42.3.27.44.63.44 1.1 0 .47-.15.84-.44 1.12-.3.28-.7.42-1.2.42-.48 0-.87-.14-1.16-.42-.3-.28-.44-.65-.44-1.12Zm5.17 0c0-.47.15-.83.44-1.1.3-.28.68-.42 1.16-.42.51 0 .91.14 1.2.42.3.27.44.63.44 1.1 0 .47-.14.84-.44 1.12-.29.28-.69.42-1.2.42-.48 0-.86-.14-1.16-.42-.29-.28-.44-.65-.44-1.12Z" fill="#fff"/></svg>